<svg xmlns="http://www.w3.org/2000/svg" x="0px" y="0px" width="100" height="100" viewBox="0,0,256,256">
<g fill="none" fill-rule="nonzero" stroke="none" stroke-width="none" stroke-linecap="none" stroke-linejoin="none" stroke-miterlimit="10" stroke-dasharray="" stroke-dashoffset="0" font-family="none" font-weight="none" font-size="none" text-anchor="none" style="mix-blend-mode: normal"><g transform="scale(2.56,2.56)"><path d="M87.215,57.71c1.135,-2.155 1.785,-4.605 1.785,-7.21c0,-6.621 -4.159,-12.257 -10.001,-14.478c0,-0.007 0.001,-0.014 0.001,-0.022c0,-11.598 -9.402,-21 -21,-21c-9.784,0 -17.981,6.701 -20.313,15.757c-1.476,-0.485 -3.049,-0.757 -4.687,-0.757c-7.692,0 -14.023,5.793 -14.89,13.252c-5.204,1.101 -9.11,5.717 -9.11,11.248c0,6.351 5.149,11.5 11.5,11.5c0.177,0 0.352,-0.012 0.526,-0.022c-0.004,0.175 -0.026,0.346 -0.026,0.522c0,11.322 9.178,20.5 20.5,20.5c6.437,0 12.175,-2.972 15.934,-7.614c2.178,2.225 5.206,3.614 8.566,3.614c4.65,0 8.674,-2.65 10.666,-6.518c1.052,0.335 2.171,0.518 3.334,0.518c6.075,0 11,-4.925 11,-11c0,-3.311 -1.47,-6.273 -3.785,-8.29z" fill="#7e7db5" stroke="none" stroke-width="1" stroke-linecap="butt" stroke-linejoin="miter"></path><path d="M21.875,59v-0.5h-14.875c-2.481,0 -4.5,-2.019 -4.5,-4.5c0,-2.422 1.895,-4.396 4.313,-4.496l0.677,-0.027l0.226,-0.64c0.492,-1.398 1.811,-2.337 3.284,-2.337c0.41,0 0.812,0.072 1.194,0.215l1.189,0.442l0.152,-1.26c0.303,-2.507 2.437,-4.397 4.964,-4.397c2.047,0 3.916,1.288 4.649,3.206l0.438,1.144l1.033,-0.657c0.713,-0.454 1.536,-0.693 2.381,-0.693c2.402,0 4.377,1.879 4.494,4.276l0.035,0.721l0.695,0.193c1.929,0.538 1.276,2.31 1.276,4.31c0,2.481 -0.019,4.5 -2.5,4.5h-6.125v0.5z" fill="#fdfcef" stroke="none" stroke-width="1" stroke-linecap="butt" stroke-linejoin="miter"></path><path d="M24.875,58.5c0,0 3.64,0 6.125,0c2.485,0 1,-2.015 1,-4.5c0,-2.333 1.718,-4.229 -0.555,-4.455c0.022,-0.181 0.055,-0.358 0.055,-0.545c0,-2.485 -2.015,-4.5 -4.5,-4.5c-1.438,0 -2.703,0.686 -3.527,1.736c-0.14,-2.636 -2.302,-4.736 -4.973,-4.736c-2.761,0 -5,2.239 -5,5c0,0.446 0.077,0.87 0.187,1.282c-0.642,-0.777 -1.601,-1.282 -2.687,-1.282c-1.781,0 -3.234,1.335 -3.455,3.055c-0.181,-0.022 -0.358,-0.055 -0.545,-0.055c-2.485,0 -4.5,2.015 -4.5,4.5c0,2.485 2.015,4.5 4.5,4.5c2.485,0 9.5,0 9.5,0h5.375v0.5h3z" fill="#fdfcef" stroke="none" stroke-width="1" stroke-linecap="butt" stroke-linejoin="miter"></path><path d="M24.875,59c-0.275,0 -0.5,-0.225 -0.5,-0.5c0,-0.275 0.225,-0.5 0.5,-0.5h6.125c2.206,0 2,-1.794 2,-4c0,-2.052 0.449,-3.754 -1.606,-3.958c-0.13,-0.013 -0.256,-0.081 -0.338,-0.184c-0.083,-0.104 -0.123,-0.243 -0.106,-0.373l0.019,-0.142c0.021,-0.154 0.031,-0.247 0.031,-0.343c0,-2.206 -1.794,-4 -4,-4c-1.22,0 -2.362,0.562 -3.133,1.544c-0.094,0.121 -0.243,0.193 -0.393,0.193c-0.049,0 -0.101,-0.008 -0.151,-0.024c-0.194,-0.061 -0.338,-0.245 -0.35,-0.448c-0.126,-2.391 -2.092,-4.265 -4.473,-4.265c-2.481,0 -4.5,2.019 -4.5,4.5c0,0.353 0.054,0.719 0.169,1.154c0.059,0.221 -0.05,0.468 -0.253,0.57c-0.073,0.039 -0.154,0.058 -0.229,0.058c-0.148,0 -0.289,-0.066 -0.385,-0.182c-0.578,-0.699 -1.418,-1.1 -2.302,-1.1c-1.496,0 -2.769,1.126 -2.959,2.618c-0.032,0.247 -0.245,0.437 -0.495,0.437l-0.215,-0.025c-0.142,-0.02 -0.235,-0.03 -0.331,-0.03c-2.206,0 -4,1.794 -4,4c0,2.206 1.794,4 4,4h14.875c0.275,0 0.5,0.225 0.5,0.5c0,0.275 -0.225,0.5 -0.5,0.5h-14.875c-2.757,0 -5,-2.243 -5,-5c0,-2.589 1.941,-4.729 4.516,-4.978l0.591,-0.057l0.232,-0.545c0.63,-1.47 2.066,-2.42 3.661,-2.42c0.309,0 0.617,0.036 0.916,0.108l0.994,0.24l0.218,-1c0.547,-2.519 2.806,-4.348 5.372,-4.348c2.113,0 3.999,1.18 4.923,3.078l0.444,0.913l0.906,-0.458c0.69,-0.348 1.459,-0.533 2.227,-0.533c2.561,0 4.697,1.917 4.971,4.459l0.067,0.631l0.601,0.207c2.01,0.693 1.361,2.583 1.361,4.703c0,2.757 -0.243,5 -3,5z" fill="#472b29" stroke="none" stroke-width="1" stroke-linecap="butt" stroke-linejoin="miter"></path><path d="M18.5,41c-3.033,0 -5.5,2.467 -5.5,5.5c0,0.016 0,0.031 0,0.047c-0.602,-0.355 -1.29,-0.547 -2,-0.547c-1.831,0 -3.411,1.261 -3.858,3.005c-0.047,-0.003 -0.094,-0.005 -0.142,-0.005c-2.757,0 -5,2.243 -5,5c0,2.757 2.243,5 5,5h14.875c0.276,0 0.5,-0.224 0.5,-0.5c0,-0.276 -0.224,-0.5 -0.5,-0.5h-14.875c-2.206,0 -4,-1.794 -4,-4c0,-2.206 1.794,-4 4,-4c0.117,0 0.23,0.017 0.343,0.032l0.141,0.019c0.021,0.003 0.041,0.004 0.062,0.004c0.246,0 0.462,-0.185 0.495,-0.437c0.191,-1.493 1.463,-2.618 2.959,-2.618c0.885,0 1.723,0.401 2.301,1.1c0.098,0.118 0.241,0.182 0.386,0.182c0.078,0 0.156,-0.018 0.228,-0.056c0.209,-0.107 0.314,-0.346 0.254,-0.573c-0.115,-0.435 -0.169,-0.801 -0.169,-1.153c0,-2.481 2.019,-4.5 4.5,-4.5c2.381,0 4.347,1.872 4.474,4.263c0.011,0.208 0.15,0.387 0.349,0.45c0.05,0.016 0.101,0.024 0.152,0.024c0.15,0 0.296,-0.069 0.392,-0.192c0.771,-0.982 1.912,-1.545 3.133,-1.545c2.206,0 4,1.794 4,4c0,0.117 -0.017,0.23 -0.032,0.343l-0.019,0.141c-0.016,0.134 0.022,0.268 0.106,0.373c0.084,0.105 0.207,0.172 0.34,0.185c2.056,0.205 1.605,1.907 1.605,3.958c0,2.206 0.206,4 -2,4h-6.125c-0.276,0 -0.5,0.224 -0.5,0.5c0,0.276 0.224,0.5 0.5,0.5h6.125c2.757,0 3,-2.243 3,-5c0,-2.397 0.311,-4.413 -2.003,-4.877c0.002,-0.041 0.003,-0.082 0.003,-0.123c0,-2.757 -2.243,-5 -5,-5c-1.176,0 -2.293,0.416 -3.183,1.164c-0.598,-2.404 -2.762,-4.164 -5.317,-4.164z" fill="#472b29" stroke="none" stroke-width="1" stroke-linecap="butt" stroke-linejoin="miter"></path><path d="M17,48c-1.403,0 -2.609,0.999 -2.913,2.341c-0.367,-0.222 -0.786,-0.341 -1.212,-0.341c-1.202,0 -2.198,0.897 -2.353,2.068c-0.203,-0.046 -0.396,-0.068 -0.585,-0.068c-1.529,0 -2.811,1.2 -2.918,2.732c-0.009,0.138 0.095,0.258 0.232,0.268c0.006,0 0.012,0 0.018,0c0.13,0 0.24,-0.101 0.249,-0.232c0.089,-1.271 1.151,-2.268 2.419,-2.268c0.229,0 0.47,0.042 0.738,0.127c0.022,0.007 0.045,0.01 0.067,0.01c0.055,0 0.11,-0.02 0.156,-0.054c0.064,-0.046 0.102,-0.128 0.102,-0.208c0,-1.034 0.841,-1.875 1.875,-1.875c0.447,0 0.885,0.168 1.231,0.473c0.047,0.041 0.106,0.063 0.165,0.063c0.032,0 0.063,-0.006 0.093,-0.019c0.088,-0.035 0.148,-0.117 0.155,-0.212c0.104,-1.293 1.193,-2.305 2.481,-2.305c0.208,0 0.425,0.034 0.682,0.107c0.023,0.007 0.047,0.01 0.07,0.01c0.109,0 0.207,-0.073 0.239,-0.182c0.038,-0.133 -0.039,-0.271 -0.172,-0.309c-0.302,-0.086 -0.563,-0.126 -0.819,-0.126z" fill="#472b29" stroke="none" stroke-width="1" stroke-linecap="butt" stroke-linejoin="miter"></path><path d="M70.405,24h-9.905c-0.276,0 -0.5,-0.224 -0.5,-0.5c0,-0.276 0.224,-0.5 0.5,-0.5h9.905c0.276,0 0.5,0.224 0.5,0.5c0,0.276 -0.223,0.5 -0.5,0.5z" fill="#ffffff" stroke="none" stroke-width="1" stroke-linecap="butt" stroke-linejoin="miter"></path><path d="M73.5,24h-1c-0.276,0 -0.5,-0.224 -0.5,-0.5c0,-0.276 0.224,-0.5 0.5,-0.5h1c0.276,0 0.5,0.224 0.5,0.5c0,0.276 -0.223,0.5 -0.5,0.5z" fill="#ffffff" stroke="none" stroke-width="1" stroke-linecap="butt" stroke-linejoin="miter"></path><path d="M78.491,26h-8.991c-0.276,0 -0.5,-0.224 -0.5,-0.5c0,-0.276 0.224,-0.5 0.5,-0.5h8.991c0.276,0 0.5,0.224 0.5,0.5c0,0.276 -0.224,0.5 -0.5,0.5z" fill="#ffffff" stroke="none" stroke-width="1" stroke-linecap="butt" stroke-linejoin="miter"></path><path d="M67.5,26h-1c-0.276,0 -0.5,-0.224 -0.5,-0.5c0,-0.276 0.224,-0.5 0.5,-0.5h1c0.276,0 0.5,0.224 0.5,0.5c0,0.276 -0.223,0.5 -0.5,0.5z" fill="#ffffff" stroke="none" stroke-width="1" stroke-linecap="butt" stroke-linejoin="miter"></path><path d="M64.5,26h-2c-0.276,0 -0.5,-0.224 -0.5,-0.5c0,-0.276 0.224,-0.5 0.5,-0.5h2c0.276,0 0.5,0.224 0.5,0.5c0,0.276 -0.223,0.5 -0.5,0.5z" fill="#ffffff" stroke="none" stroke-width="1" stroke-linecap="butt" stroke-linejoin="miter"></path><path d="M70.5,28h-2c-0.276,0 -0.5,-0.224 -0.5,-0.5c0,-0.276 0.224,-0.5 0.5,-0.5h2c0.276,0 0.5,0.224 0.5,0.5c0,0.276 -0.224,0.5 -0.5,0.5z" fill="#ffffff" stroke="none" stroke-width="1" stroke-linecap="butt" stroke-linejoin="miter"></path><path d="M73.5,19c-0.177,0 -0.823,0 -1,0c-0.276,0 -0.5,0.224 -0.5,0.5c0,0.276 0.224,0.5 0.5,0.5c0.177,0 0.823,0 1,0c0.276,0 0.5,-0.224 0.5,-0.5c0,-0.276 -0.224,-0.5 -0.5,-0.5z" fill="#ffffff" stroke="none" stroke-width="1" stroke-linecap="butt" stroke-linejoin="miter"></path><path d="M73.5,21c-0.177,0 -4.823,0 -5,0c-0.276,0 -0.5,0.224 -0.5,0.5c0,0.276 0.224,0.5 0.5,0.5c0.177,0 4.823,0 5,0c0.276,0 0.5,-0.224 0.5,-0.5c0,-0.276 -0.224,-0.5 -0.5,-0.5z" fill="#ffffff" stroke="none" stroke-width="1" stroke-linecap="butt" stroke-linejoin="miter"></path><path d="M78.5,23c-0.177,0 -2.823,0 -3,0c-0.276,0 -0.5,0.224 -0.5,0.5c0,0.276 0.224,0.5 0.5,0.5c0.177,0 2.823,0 3,0c0.276,0 0.5,-0.224 0.5,-0.5c0,-0.276 -0.224,-0.5 -0.5,-0.5z" fill="#ffffff" stroke="none" stroke-width="1" stroke-linecap="butt" stroke-linejoin="miter"></path><path d="M32.5,81h-10c-0.276,0 -0.5,-0.224 -0.5,-0.5c0,-0.276 0.224,-0.5 0.5,-0.5h10c0.276,0 0.5,0.224 0.5,0.5c0,0.276 -0.224,0.5 -0.5,0.5z" fill="#ffffff" stroke="none" stroke-width="1" stroke-linecap="butt" stroke-linejoin="miter"></path><path d="M36.5,81h-2c-0.276,0 -0.5,-0.224 -0.5,-0.5c0,-0.276 0.224,-0.5 0.5,-0.5h2c0.276,0 0.5,0.224 0.5,0.5c0,0.276 -0.224,0.5 -0.5,0.5z" fill="#ffffff" stroke="none" stroke-width="1" stroke-linecap="butt" stroke-linejoin="miter"></path><path d="M41.5,83h-10c-0.276,0 -0.5,-0.224 -0.5,-0.5c0,-0.276 0.224,-0.5 0.5,-0.5h10c0.276,0 0.5,0.224 0.5,0.5c0,0.276 -0.223,0.5 -0.5,0.5z" fill="#ffffff" stroke="none" stroke-width="1" stroke-linecap="butt" stroke-linejoin="miter"></path><path d="M29.5,83h-1c-0.276,0 -0.5,-0.224 -0.5,-0.5c0,-0.276 0.224,-0.5 0.5,-0.5h1c0.276,0 0.5,0.224 0.5,0.5c0,0.276 -0.224,0.5 -0.5,0.5z" fill="#ffffff" stroke="none" stroke-width="1" stroke-linecap="butt" stroke-linejoin="miter"></path><path d="M26.375,83h-1.875c-0.276,0 -0.5,-0.224 -0.5,-0.5c0,-0.276 0.224,-0.5 0.5,-0.5h1.875c0.276,0 0.5,0.224 0.5,0.5c0,0.276 -0.224,0.5 -0.5,0.5z" fill="#ffffff" stroke="none" stroke-width="1" stroke-linecap="butt" stroke-linejoin="miter"></path><path d="M35.5,79h-5c-0.276,0 -0.5,-0.224 -0.5,-0.5c0,-0.276 0.224,-0.5 0.5,-0.5h5c0.276,0 0.5,0.224 0.5,0.5c0,0.276 -0.223,0.5 -0.5,0.5z" fill="#ffffff" stroke="none" stroke-width="1" stroke-linecap="butt" stroke-linejoin="miter"></path><path d="M32.5,85h-2c-0.276,0 -0.5,-0.224 -0.5,-0.5c0,-0.276 0.224,-0.5 0.5,-0.5h2c0.276,0 0.5,0.224 0.5,0.5c0,0.276 -0.224,0.5 -0.5,0.5z" fill="#ffffff" stroke="none" stroke-width="1" stroke-linecap="butt" stroke-linejoin="miter"></path><path d="M39.775,50.315v19.807h-7.837c-1.626,0 -2.939,-1.313 -2.939,-2.939v-25.292z" fill="#78a0cf" stroke="none" stroke-width="1" stroke-linecap="butt" stroke-linejoin="miter"></path><path d="M39.775,36.64v13.675l-10.775,-8.424v-2.625c0,-1.254 0.431,-2.41 1.146,-3.321c1.774,-2.305 5.258,-2.768 7.563,-0.921z" fill="#c4211f" stroke="none" stroke-width="1" stroke-linecap="butt" stroke-linejoin="miter"></path><path d="M66.224,36.64v13.665l-13.224,10.335l-13.225,-10.325v-13.675l13.225,10.325z" fill="#eb4235" stroke="none" stroke-width="1" stroke-linecap="butt" stroke-linejoin="miter"></path><path d="M77,39.265v2.625l-10.775,8.415v-13.665l2.067,-1.616c0.99,-0.774 2.155,-1.146 3.321,-1.146c2.899,-0.028 5.42,2.435 5.387,5.387z" fill="#f1bc19" stroke="none" stroke-width="1" stroke-linecap="butt" stroke-linejoin="miter"></path><path d="M77,41.891v25.293c0,1.626 -1.313,2.939 -2.939,2.939h-7.837v-19.818z" fill="#9ca74c" stroke="none" stroke-width="1" stroke-linecap="butt" stroke-linejoin="miter"></path><path d="M31.939,65.224v1.96" fill="none" stroke="#472b29" stroke-width="0.75" stroke-linecap="round" stroke-linejoin="round"></path><path d="M31.939,59.347v2.939" fill="none" stroke="#472b29" stroke-width="0.75" stroke-linecap="round" stroke-linejoin="round"></path><path d="M31.939,49.551v6.802" fill="none" stroke="#472b29" stroke-width="0.75" stroke-linecap="round" stroke-linejoin="round"></path><path d="M39.775,36.867v33.256h-7.837c-1.623,0 -2.939,-1.316 -2.939,-2.939v-27.919c0,-2.976 2.412,-5.388 5.388,-5.388" fill="none" stroke="#472b29" stroke-width="1.4" stroke-linecap="butt" stroke-linejoin="round"></path><path d="M75.858,35.948c-1.832,-2.345 -5.218,-2.76 -7.563,-0.929l-15.295,11.951v0l-15.295,-11.95c-2.345,-1.832 -5.731,-1.416 -7.563,0.929" fill="none" stroke="#472b29" stroke-width="1.4" stroke-linecap="butt" stroke-linejoin="round"></path><path d="M54.356,55.842l4.454,-3.524" fill="none" stroke="#472b29" stroke-width="0.75" stroke-linecap="round" stroke-linejoin="round"></path><path d="M48.822,53.609l3.467,2.744" fill="none" stroke="#472b29" stroke-width="0.75" stroke-linecap="round" stroke-linejoin="round"></path><path d="M44.985,50.573l2.3,1.82" fill="none" stroke="#472b29" stroke-width="0.75" stroke-linecap="round" stroke-linejoin="round"></path><path d="M42.456,48.571l0.992,0.786" fill="none" stroke="#472b29" stroke-width="0.75" stroke-linecap="round" stroke-linejoin="round"></path><path d="M29.157,42.015l23.843,18.629v0l23.826,-18.615" fill="none" stroke="#472b29" stroke-width="1.4" stroke-linecap="butt" stroke-linejoin="round"></path><path d="M71.612,33.878c2.976,0 5.388,2.412 5.388,5.388v27.918c0,1.623 -1.316,2.939 -2.939,2.939h-7.837v-33.323" fill="none" stroke="#472b29" stroke-width="1.4" stroke-linecap="butt" stroke-linejoin="round"></path><path d="M84.5,66v-0.5h-7.5c-1.93,0 -3.5,-1.57 -3.5,-3.5c0,-1.895 1.482,-3.431 3.375,-3.498l0.609,-0.021l0.26,-0.551c0.409,-0.868 1.295,-1.43 2.256,-1.43c0.142,0 0.28,0.012 0.417,0.035l0.97,0.172l0.186,-0.967c0.362,-1.878 2.014,-3.24 3.928,-3.24c1.438,0 2.773,0.783 3.485,2.045l0.485,0.859l0.866,-0.475c0.514,-0.281 1.088,-0.43 1.663,-0.43c1.866,0 3.402,1.459 3.495,3.321l0.034,0.671l0.633,0.223c1.399,0.493 2.338,1.813 2.338,3.286c0,1.93 -1.57,3.5 -3.5,3.5h-3.5v0.5z" fill="#fdfcef" stroke="none" stroke-width="1" stroke-linecap="butt" stroke-linejoin="miter"></path><path d="M91.5,65.5c0,0 1.567,0 3.5,0c1.933,0 3.5,-1.567 3.5,-3.5c0,-1.781 -1.335,-3.234 -3.055,-3.455c0.028,-0.179 0.055,-0.358 0.055,-0.545c0,-1.933 -1.567,-3.5 -3.5,-3.5c-1.032,0 -1.95,0.455 -2.59,1.165c-0.384,-1.808 -1.987,-3.165 -3.91,-3.165c-2.209,0 -4,1.791 -4,4c0,0.191 0.03,0.374 0.056,0.558c-0.428,-0.344 -0.964,-0.558 -1.556,-0.558c-1.228,0 -2.245,0.887 -2.455,2.055c-0.179,-0.028 -0.358,-0.055 -0.545,-0.055c-1.933,0 -3.5,1.567 -3.5,3.5c0,1.933 1.567,3.5 3.5,3.5c1.933,0 7.5,0 7.5,0v0.5h7z" fill="#fdfcef" stroke="none" stroke-width="1" stroke-linecap="butt" stroke-linejoin="miter"></path><path d="M93.25,61c-0.138,0 -0.25,-0.112 -0.25,-0.25c0,-1.223 0.995,-2.218 2.218,-2.218c0.034,0.009 0.737,-0.001 1.244,0.136c0.133,0.036 0.212,0.173 0.176,0.306c-0.036,0.134 -0.173,0.213 -0.306,0.176c-0.444,-0.12 -1.1,-0.12 -1.113,-0.118c-0.948,0 -1.719,0.771 -1.719,1.718c0,0.138 -0.112,0.25 -0.25,0.25z" fill="#472b29" stroke="none" stroke-width="1" stroke-linecap="butt" stroke-linejoin="miter"></path><circle cx="86.5" cy="65.5" r="0.5" fill="#472b29" stroke="none" stroke-width="1" stroke-linecap="butt" stroke-linejoin="miter"></circle><path d="M91.5,66c-0.275,0 -0.5,-0.225 -0.5,-0.5c0,-0.275 0.225,-0.5 0.5,-0.5h3.5c1.654,0 3,-1.346 3,-3c0,-1.496 -1.126,-2.769 -2.618,-2.959c-0.13,-0.017 -0.257,-0.09 -0.335,-0.195c-0.082,-0.108 -0.116,-0.248 -0.095,-0.379c0.032,-0.209 0.048,-0.336 0.048,-0.467c0,-1.654 -1.346,-3 -3,-3c-0.85,0 -1.638,0.355 -2.219,1.001c-0.095,0.104 -0.23,0.165 -0.372,0.165c-0.042,0 -0.085,-0.006 -0.127,-0.018c-0.187,-0.051 -0.322,-0.196 -0.361,-0.38c-0.341,-1.604 -1.779,-2.768 -3.421,-2.768c-1.93,0 -3.5,1.57 -3.5,3.5c0,0.121 0.014,0.238 0.032,0.354c0.039,0.272 -0.057,0.503 -0.233,0.604c-0.094,0.053 -0.193,0.081 -0.289,0.081c-0.103,0 -0.189,-0.029 -0.266,-0.091c-0.367,-0.293 -0.797,-0.448 -1.244,-0.448c-0.967,0 -1.793,0.691 -1.963,1.645c-0.043,0.237 -0.249,0.41 -0.491,0.41l-0.117,-0.011c-0.172,-0.028 -0.299,-0.044 -0.429,-0.044c-1.654,0 -3,1.346 -3,3c0,1.654 1.346,3 3,3h7.5c0.275,0 0.5,0.225 0.5,0.5c0,0.275 -0.225,0.5 -0.5,0.5h-7.5c-2.206,0 -4,-1.794 -4,-4c0,-2.041 1.59,-3.79 3.62,-3.982l0.519,-0.049l0.258,-0.452c0.53,-0.936 1.528,-1.517 2.603,-1.517l0.952,0.038l0.216,-0.761c0.548,-1.929 2.329,-3.277 4.332,-3.277c1.491,0 2.881,0.736 3.718,1.969l0.463,0.684l0.759,-0.326c0.497,-0.215 1.036,-0.327 1.56,-0.327c2.03,0 3.738,1.52 3.974,3.534l0.067,0.576l0.534,0.228c1.473,0.628 2.425,2.065 2.425,3.662c0,2.206 -1.794,4 -4,4z" fill="#472b29" stroke="none" stroke-width="1" stroke-linecap="butt" stroke-linejoin="miter"></path><path d="M95,66h-3.5c-0.276,0 -0.5,-0.224 -0.5,-0.5c0,-0.276 0.224,-0.5 0.5,-0.5h3.5c1.654,0 3,-1.346 3,-3c0,-1.496 -1.125,-2.768 -2.618,-2.959c-0.134,-0.018 -0.255,-0.088 -0.336,-0.196c-0.081,-0.108 -0.115,-0.244 -0.094,-0.377c0.023,-0.154 0.048,-0.308 0.048,-0.468c0,-1.654 -1.346,-3 -3,-3c-0.85,0 -1.638,0.355 -2.219,1c-0.125,0.139 -0.321,0.198 -0.5,0.148c-0.182,-0.049 -0.321,-0.195 -0.36,-0.379c-0.341,-1.604 -1.78,-2.769 -3.421,-2.769c-1.93,0 -3.5,1.57 -3.5,3.5c0,0.143 0.021,0.28 0.041,0.418c0.029,0.203 -0.063,0.438 -0.242,0.54c-0.179,0.102 -0.396,0.118 -0.556,-0.01c-0.365,-0.293 -0.794,-0.448 -1.243,-0.448c-0.966,0 -1.792,0.691 -1.963,1.644c-0.048,0.267 -0.296,0.446 -0.569,0.405c-0.154,-0.024 -0.308,-0.049 -0.468,-0.049c-1.654,0 -3,1.346 -3,3c0,1.654 1.346,3 3,3h7.5c0.276,0 0.5,0.224 0.5,0.5c0,0.276 -0.224,0.5 -0.5,0.5h-7.5c-2.206,0 -4,-1.794 -4,-4c0,-2.206 1.794,-4 4,-4c0.059,0 0.116,0.002 0.174,0.006c0.414,-1.186 1.537,-2.006 2.826,-2.006c0.349,0 0.689,0.061 1.011,0.18c0.165,-2.333 2.115,-4.18 4.489,-4.18c1.831,0 3.466,1.127 4.153,2.774c0.68,-0.498 1.502,-0.774 2.347,-0.774c2.206,0 4,1.794 4,4c0,0.048 -0.001,0.095 -0.004,0.142c1.743,0.448 3.004,2.027 3.004,3.858c0,2.206 -1.794,4 -4,4z" fill="#472b29" stroke="none" stroke-width="1" stroke-linecap="butt" stroke-linejoin="miter"></path><path d="M89.5,65c-0.159,0 -0.841,0 -1,0c-0.276,0 -0.5,0.224 -0.5,0.5c0,0.276 0.224,0.5 0.5,0.5c0.159,0 0.841,0 1,0c0.276,0 0.5,-0.224 0.5,-0.5c0,-0.276 -0.224,-0.5 -0.5,-0.5z" fill="#472b29" stroke="none" stroke-width="1" stroke-linecap="butt" stroke-linejoin="miter"></path></g></g>
</svg>